STARTFONT 2.1
COMMENT $XConsortium: lutRS14.bdf,v 1.8 94/04/02 16:26:00 gildea Exp $
FONT -B&H-LucidaTypewriter-Medium-R-Normal-Sans-20-140-100-100-M-120-ISO8859-1
SIZE 14 100 100
FONTBOUNDINGBOX 12 22 5 -4
STARTPROPERTIES 20
FONTNAME_REGISTRY ""
FOUNDRY "B&H"
FAMILY_NAME "LucidaTypewriter"
WEIGHT_NAME "Medium"
SLANT "R"
SETWIDTH_NAME "Normal"
ADD_STYLE_NAME "Sans"
PIXEL_SIZE 20
POINT_SIZE 140
RESOLUTION_X 100
RESOLUTION_Y 100
SPACING "M"
AVERAGE_WIDTH 120
CHARSET_REGISTRY "ISO8859"
CHARSET_ENCODING "1"
FONT_ASCENT 18
FONT_DESCENT 4
DEFAULT_CHAR 0
COPYRIGHT "Copyright Bigelow & Holmes 1986, 1985."
FACE_NAME "Lucida Sans Typewriter"
ENDPROPERTIES
CHARS 190
STARTCHAR space
ENCODING 32
SWIDTH 602 0
DWIDTH 12 0
BBX 1 1 0 0
BITMAP
00
ENDCHAR
STARTCHAR exclam
ENCODING 33
SWIDTH 602 0
DWIDTH 12 0
BBX 2 14 5 0
BITMAP
c0
c0
c0
c0
c0
c0
80
80
80
80
00
00
80
80
ENDCHAR
STARTCHAR quotedbl
ENCODING 34
SWIDTH 602 0
DWIDTH 12 0
BBX 6 4 3 10
BITMAP
cc
cc
84
84
ENDCHAR
STARTCHAR numbersign
ENCODING 35
SWIDTH 602 0
DWIDTH 12 0
BBX 11 14 1 0
BITMAP
04c0
0c80
0880
0880
7fe0
1100
1100
1100
ffc0
2200
2200
2200
2400
4400
ENDCHAR
STARTCHAR dollar
ENCODING 36
SWIDTH 602 0
DWIDTH 12 0
BBX 7 18 3 -2
BITMAP
10
10
7e
d2
d0
d0
d0
70
38
1c
1e
16
16
16
dc
fc
10
10
ENDCHAR
STARTCHAR percent
ENCODING 37
SWIDTH 602 0
DWIDTH 12 0
BBX 12 14 0 0
BITMAP
7830
cc60
8440
8480
cd80
7b00
0200
05e0
0b30
1a10
1210
2210
4330
c1e0
ENDCHAR
STARTCHAR ampersand
ENCODING 38
SWIDTH 602 0
DWIDTH 12 0
BBX 11 14 1 0
BITMAP
1e00
3300
3300
3300
3600
1c00
3800
4c60
ce60
c640
c7c0
c380
6380
3ee0
ENDCHAR
STARTCHAR quoteright
ENCODING 39
SWIDTH 602 0
DWIDTH 12 0
BBX 3 5 4 9
BITMAP
e0
e0
60
c0
80
ENDCHAR
STARTCHAR parenleft
ENCODING 40
SWIDTH 602 0
DWIDTH 12 0
BBX 7 17 3 -3
BITMAP
0e
1c
30
60
60
c0
c0
c0
c0
c0
c0
40
60
20
30
1c
06
ENDCHAR
STARTCHAR parenright
ENCODING 41
SWIDTH 602 0
DWIDTH 12 0
BBX 7 17 2 -3
BITMAP
c0
70
18
0c
0c
06
06
06
06
06
06
06
0c
0c
18
70
c0
ENDCHAR
STARTCHAR asterisk
ENCODING 42
SWIDTH 602 0
DWIDTH 12 0
BBX 9 8 1 6
BITMAP
0800
0800
c980
f780
0000
3600
7600
2300
ENDCHAR
STARTCHAR plus
ENCODING 43
SWIDTH 602 0
DWIDTH 12 0
BBX 9 11 1 0
BITMAP
0800
0800
0800
0800
0800
ff80
0800
0800
0800
0800
0800
ENDCHAR
STARTCHAR comma
ENCODING 44
SWIDTH 602 0
DWIDTH 12 0
BBX 3 6 4 -3
BITMAP
e0
e0
e0
20
60
c0
ENDCHAR
STARTCHAR minus
ENCODING 45
SWIDTH 602 0
DWIDTH 12 0
BBX 10 1 1 4
BITMAP
ffc0
ENDCHAR
STARTCHAR period
ENCODING 46
SWIDTH 602 0
DWIDTH 12 0
BBX 3 3 4 0
BITMAP
e0
e0
e0
ENDCHAR
STARTCHAR slash
ENCODING 47
SWIDTH 602 0
DWIDTH 12 0
BBX 11 17 0 -3
BITMAP
0060
0040
0080
0080
0100
0100
0200
0600
0400
0c00
0800
1000
1000
2000
2000
4000
c000
ENDCHAR
STARTCHAR zero
ENCODING 48
SWIDTH 602 0
DWIDTH 12 0
BBX 10 14 1 0
BITMAP
1e00
2300
6180
4080
c0c0
c0c0
c0c0
c0c0
c0c0
c0c0
4080
6180
2100
1e00
ENDCHAR
STARTCHAR one
ENCODING 49
SWIDTH 602 0
DWIDTH 12 0
BBX 10 14 2 0
BITMAP
0400
7c00
8c00
0c00
0c00
0c00
0c00
0c00
0c00
0c00
0c00
0c00
0c00
ffc0
ENDCHAR
STARTCHAR two
ENCODING 50
SWIDTH 602 0
DWIDTH 12 0
BBX 8 14 2 0
BITMAP
7c
86
03
03
03
03
06
0c
18
30
60
60
c0
ff
ENDCHAR
STARTCHAR three
ENCODING 51
SWIDTH 602 0
DWIDTH 12 0
BBX 8 14 2 0
BITMAP
fc
87
03
03
03
06
78
0e
03
03
03
03
86
fc
ENDCHAR
STARTCHAR four
ENCODING 52
SWIDTH 602 0
DWIDTH 12 0
BBX 10 14 1 0
BITMAP
0300
0700
0700
0b00
1300
3300
2300
4300
c300
ffc0
0300
0300
0300
0300
ENDCHAR
STARTCHAR five
ENCODING 53
SWIDTH 602 0
DWIDTH 12 0
BBX 7 14 3 0
BITMAP
fe
80
80
80
80
f0
1c
0c
06
06
06
06
8c
f8
ENDCHAR
STARTCHAR six
ENCODING 54
SWIDTH 602 0
DWIDTH 12 0
BBX 9 14 2 0
BITMAP
1f00
3100
6000
4000
c000
de00
e300
c180
c180
c180
c180
4180
6300
1e00
ENDCHAR
STARTCHAR seven
ENCODING 55
SWIDTH 602 0
DWIDTH 12 0
BBX 9 14 2 0
BITMAP
ff80
ff80
0100
0300
0200
0400
0400
0800
1800
1000
3000
3000
6000
6000
ENDCHAR
STARTCHAR eight
ENCODING 56
SWIDTH 602 0
DWIDTH 12 0
BBX 9 14 2 0
BITMAP
1e00
3300
6100
6100
7300
3e00
1c00
2f00
4380
c180
c180
c180
6300
3e00
ENDCHAR
STARTCHAR nine
ENCODING 57
SWIDTH 602 0
DWIDTH 12 0
BBX 9 14 2 0
BITMAP
3c00
6300
c100
c180
c180
c180
c180
6380
3d80
0180
0100
0300
4600
7c00
ENDCHAR
STARTCHAR colon
ENCODING 58
SWIDTH 602 0
DWIDTH 12 0
BBX 3 11 4 0
BITMAP
e0
e0
e0
00
00
00
00
00
e0
e0
e0
ENDCHAR
STARTCHAR semicolon
ENCODING 59
SWIDTH 602 0
DWIDTH 12 0
BBX 3 14 4 -3
BITMAP
e0
e0
e0
00
00
00
00
00
e0
e0
e0
20
60
c0
ENDCHAR
STARTCHAR less
ENCODING 60
SWIDTH 602 0
DWIDTH 12 0
BBX 9 11 0 0
BITMAP
0080
0180
0600
1800
6000
c000
6000
1800
0600
0180
0080
ENDCHAR
STARTCHAR equal
ENCODING 61
SWIDTH 602 0
DWIDTH 12 0
BBX 10 5 1 3
BITMAP
ffc0
0000
0000
0000
ffc0
ENDCHAR
STARTCHAR greater
ENCODING 62
SWIDTH 602 0
DWIDTH 12 0
BBX 9 11 1 0
BITMAP
8000
c000
3000
0c00
0300
0180
0300
0c00
3000
c000
8000
ENDCHAR
STARTCHAR question
ENCODING 63
SWIDTH 602 0
DWIDTH 12 0
BBX 9 14 2 0
BITMAP
fe00
8300
8180
0180
0100
0200
0400
0800
1800
1800
0000
0000
1800
1800
ENDCHAR
STARTCHAR at
ENCODING 64
SWIDTH 602 0
DWIDTH 12 0
BBX 11 14 1 0
BITMAP
0f80
30c0
6040
43c0
8440
8840
8840
88c0
88c0
89c0
4760
4000
3080
1f00
ENDCHAR
STARTCHAR A
ENCODING 65
SWIDTH 602 0
DWIDTH 12 0
BBX 12 14 0 0
BITMAP
0600
0700
0b00
0b00
0980
1180
1180
10c0
20c0
3fc0
2060
4060
4070
c030
ENDCHAR
STARTCHAR B
ENCODING 66
SWIDTH 602 0
DWIDTH 12 0
BBX 9 14 2 0
BITMAP
fe00
c700
c300
c300
c300
c600
fc00
c600
c300
c180
c180
c180
c300
fe00
ENDCHAR
STARTCHAR C
ENCODING 67
SWIDTH 602 0
DWIDTH 12 0
BBX 10 14 1 0
BITMAP
0fc0
3840
6000
6000
c000
c000
c000
c000
c000
c000
6000
6000
3840
0fc0
ENDCHAR
STARTCHAR D
ENCODING 68
SWIDTH 602 0
DWIDTH 12 0
BBX 10 14 1 0
BITMAP
fe00
c300
c180
c0c0
c0c0
c0c0
c0c0
c0c0
c0c0
c0c0
c180
c180
c300
fe00
ENDCHAR
STARTCHAR E
ENCODING 69
SWIDTH 602 0
DWIDTH 12 0
BBX 9 14 2 0
BITMAP
ff80
c000
c000
c000
c000
c000
ff00
c000
c000
c000
c000
c000
c000
ff80
ENDCHAR
STARTCHAR F
ENCODING 70
SWIDTH 602 0
DWIDTH 12 0
BBX 9 14 2 0
BITMAP
ff80
c000
c000
c000
c000
c000
ff00
c000
c000
c000
c000
c000
c000
c000
ENDCHAR
STARTCHAR G
ENCODING 71
SWIDTH 602 0
DWIDTH 12 0
BBX 10 14 1 0
BITMAP
0fc0
3040
6000
6000
c000
c000
c000
c000
c0c0
c0c0
60c0
60c0
38c0
0fc0
ENDCHAR
STARTCHAR H
ENCODING 72
SWIDTH 602 0
DWIDTH 12 0
BBX 9 14 1 0
BITMAP
c180
c180
c180
c180
c180
c180
ff80
c180
c180
c180
c180
c180
c180
c180
ENDCHAR
STARTCHAR I
ENCODING 73
SWIDTH 602 0
DWIDTH 12 0
BBX 8 14 2 0
BITMAP
ff
18
18
18
18
18
18
18
18
18
18
18
18
ff
ENDCHAR
STARTCHAR J
ENCODING 74
SWIDTH 602 0
DWIDTH 12 0
BBX 7 14 2 0
BITMAP
7e
06
06
06
06
06
06
06
06
06
06
06
8c
f8
ENDCHAR
STARTCHAR K
ENCODING 75
SWIDTH 602 0
DWIDTH 12 0
BBX 10 14 2 0
BITMAP
c180
c300
c200
c400
c800
d800
d000
f800
dc00
ce00
c600
c300
c380
c1c0
ENDCHAR
STARTCHAR L
ENCODING 76
SWIDTH 602 0
DWIDTH 12 0
BBX 9 14 2 0
BITMAP
c000
c000
c000
c000
c000
c000
c000
c000
c000
c000
c000
c000
c000
ff80
ENDCHAR
STARTCHAR M
ENCODING 77
SWIDTH 602 0
DWIDTH 12 0
BBX 10 14 1 0
BITMAP
c0c0
c0c0
e1c0
a140
a140
a140
9240
9240
9240
9240
8c40
8c40
8c40
8040
ENDCHAR
STARTCHAR N
ENCODING 78
SWIDTH 602 0
DWIDTH 12 0
BBX 9 14 1 0
BITMAP
c080
e080
e080
f080
b080
9880
9880
8c80
8e80
8680
8780
8380
8180
8180
ENDCHAR
STARTCHAR O
ENCODING 79
SWIDTH 602 0
DWIDTH 12 0
BBX 11 14 0 0
BITMAP
1f00
3180
60c0
60c0
c060
c060
c060
c060
c060
c060
60c0
60c0
3180
1f00
ENDCHAR
STARTCHAR P
ENCODING 80
SWIDTH 602 0
DWIDTH 12 0
BBX 9 14 2 0
BITMAP
fe00
c380
c180
c180
c180
c180
c300
fc00
c000
c000
c000
c000
c000
c000
ENDCHAR
STARTCHAR Q
ENCODING 81
SWIDTH 602 0
DWIDTH 12 0
BBX 12 17 0 -3
BITMAP
1f00
3180
60c0
60c0
c060
c060
c060
c060
c060
c060
60e0
60c0
31c0
1f80
0180
00f0
0020
ENDCHAR
STARTCHAR R
ENCODING 82
SWIDTH 602 0
DWIDTH 12 0
BBX 10 14 2 0
BITMAP
fc00
c700
c300
c300
c300
c700
fe00
cc00
cc00
c600
c700
c300
c180
c1c0
ENDCHAR
STARTCHAR S
ENCODING 83
SWIDTH 602 0
DWIDTH 12 0
BBX 9 14 2 0
BITMAP
3f00
6100
c000
c000
e000
7000
3c00
0f00
0380
0180
0180
0180
8300
7e00
ENDCHAR
STARTCHAR T
ENCODING 84
SWIDTH 602 0
DWIDTH 12 0
BBX 12 14 0 0
BITMAP
fff0
0600
0600
0600
0600
0600
0600
0600
0600
0600
0600
0600
0600
0600
ENDCHAR
STARTCHAR U
ENCODING 85
SWIDTH 602 0
DWIDTH 12 0
BBX 9 14 2 0
BITMAP
c080
c080
c080
c080
c080
c080
c080
c080
c080
c080
c080
c080
6100
3e00
ENDCHAR
STARTCHAR V
ENCODING 86
SWIDTH 602 0
DWIDTH 12 0
BBX 12 14 0 0
BITMAP
c030
6020
6020
6040
3040
3040
3080
1880
1880
1900
0d00
0f00
0e00
0600
ENDCHAR
STARTCHAR W
ENCODING 87
SWIDTH 602 0
DWIDTH 12 0
BBX 12 14 0 0
BITMAP
8010
8610
8610
ce30
cb20
cb20
cb20
4b20
5160
51e0
71e0
71c0
60c0
60c0
ENDCHAR
STARTCHAR X
ENCODING 88
SWIDTH 602 0
DWIDTH 12 0
BBX 12 14 0 0
BITMAP
e020
7040
30c0
1880
1d00
0f00
0600
0700
0b00
1980
11c0
20c0
6060
c070
ENDCHAR
STARTCHAR Y
ENCODING 89
SWIDTH 602 0
DWIDTH 12 0
BBX 12 14 0 0
BITMAP
e030
6020
7040
3080
1880
1d00
0f00
0600
0600
0600
0600
0600
0600
0600
ENDCHAR
STARTCHAR Z
ENCODING 90
SWIDTH 602 0
DWIDTH 12 0
BBX 10 14 1 0
BITMAP
ffc0
01c0
0180
0380
0700
0600
0e00
1c00
1800
3000
7000
6000
c000
ffc0
ENDCHAR
STARTCHAR bracketleft
ENCODING 91
SWIDTH 602 0
DWIDTH 12 0
BBX 5 17 5 -3
BITMAP
f8
80
80
80
80
80
80
80
80
80
80
80
80
80
80
80
f8
ENDCHAR
STARTCHAR backslash
ENCODING 92
SWIDTH 602 0
DWIDTH 12 0
BBX 11 17 0 -3
BITMAP
c000
4000
2000
2000
1000
1000
0800
0c00
0400
0600
0200
0100
0100
0080
0080
0040
0060
ENDCHAR
STARTCHAR bracketright
ENCODING 93
SWIDTH 602 0
DWIDTH 12 0
BBX 5 17 2 -3
BITMAP
f8
08
08
08
08
08
08
08
08
08
08
08
08
08
08
08
f8
ENDCHAR
STARTCHAR asciicircum
ENCODING 94
SWIDTH 602 0
DWIDTH 12 0
BBX 10 10 1 3
BITMAP
0400
0c00
0c00
1200
1200
2100
2100
4080
4080
c0c0
ENDCHAR
STARTCHAR underscore
ENCODING 95
SWIDTH 602 0
DWIDTH 12 0
BBX 12 1 0 -2
BITMAP
fff0
ENDCHAR
STARTCHAR quoteleft
ENCODING 96
SWIDTH 602 0
DWIDTH 12 0
BBX 3 5 4 9
BITMAP
60
c0
80
e0
e0
ENDCHAR
STARTCHAR a
ENCODING 97
SWIDTH 602 0
DWIDTH 12 0
BBX 10 11 1 0
BITMAP
7e00
4300
0300
0300
0300
3f00
6300
c300
c300
c700
7dc0
ENDCHAR
STARTCHAR b
ENCODING 98
SWIDTH 602 0
DWIDTH 12 0
BBX 9 14 2 0
BITMAP
c000
c000
c000
de00
f300
e180
c180
c180
c180
c180
c180
c300
e300
de00
ENDCHAR
STARTCHAR c
ENCODING 99
SWIDTH 602 0
DWIDTH 12 0
BBX 9 11 2 0
BITMAP
1f80
7080
6000
c000
c000
c000
c000
c000
6000
7080
1f80
ENDCHAR
STARTCHAR d
ENCODING 100
SWIDTH 602 0
DWIDTH 12 0
BBX 9 14 1 0
BITMAP
0180
0180
0180
3d80
6380
6180
c180
c180
c180
c180
c180
c380
6780
3d80
ENDCHAR
STARTCHAR e
ENCODING 101
SWIDTH 602 0
DWIDTH 12 0
BBX 9 11 2 0
BITMAP
1e00
6300
6180
c180
c180
ff80
c000
c000
4000
6080
1f80
ENDCHAR
STARTCHAR f
ENCODING 102
SWIDTH 602 0
DWIDTH 12 0
BBX 10 16 2 0
BITMAP
0fc0
1c00
1800
1800
1800
ffc0
1800
1800
1800
1800
1800
1800
1800
1800
1800
1800
ENDCHAR
STARTCHAR g
ENCODING 103
SWIDTH 602 0
DWIDTH 12 0
BBX 9 15 1 -4
BITMAP
1e80
6380
6180
c180
c180
c180
c180
c180
c380
6780
3d80
0180
0180
4300
7e00
ENDCHAR
STARTCHAR h
ENCODING 104
SWIDTH 602 0
DWIDTH 12 0
BBX 9 14 2 0
BITMAP
c000
c000
c000
cf00
df80
f180
c180
c180
c180
c180
c180
c180
c180
c180
ENDCHAR
STARTCHAR i
ENCODING 105
SWIDTH 602 0
DWIDTH 12 0
BBX 6 14 2 0
BITMAP
0c
0c
00
fc
0c
0c
0c
0c
0c
0c
0c
0c
0c
0c
ENDCHAR
STARTCHAR j
ENCODING 106
SWIDTH 602 0
DWIDTH 12 0
BBX 7 18 2 -4
BITMAP
06
06
00
7e
06
06
06
06
06
06
06
06
06
06
06
06
8c
f8
ENDCHAR
STARTCHAR k
ENCODING 107
SWIDTH 602 0
DWIDTH 12 0
BBX 10 14 2 0
BITMAP
c000
c000
c000
c100
c200
c400
c800
d000
f800
dc00
ce00
c700
c380
c1c0
ENDCHAR
STARTCHAR l
ENCODING 108
SWIDTH 602 0
DWIDTH 12 0
BBX 6 14 2 0
BITMAP
fc
0c
0c
0c
0c
0c
0c
0c
0c
0c
0c
0c
0c
0c
ENDCHAR
STARTCHAR m
ENCODING 109
SWIDTH 602 0
DWIDTH 12 0
BBX 11 11 1 0
BITMAP
b9c0
a720
c620
8420
8420
8420
8420
8420
8420
8420
8420
ENDCHAR
STARTCHAR n
ENCODING 110
SWIDTH 602 0
DWIDTH 12 0
BBX 9 11 2 0
BITMAP
cf00
df80
f180
c180
c180
c180
c180
c180
c180
c180
c180
ENDCHAR
STARTCHAR o
ENCODING 111
SWIDTH 602 0
DWIDTH 12 0
BBX 10 11 1 0
BITMAP
1e00
7380
6180
c0c0
c0c0
c0c0
c0c0
c0c0
6180
7380
1e00
ENDCHAR
STARTCHAR p
ENCODING 112
SWIDTH 602 0
DWIDTH 12 0
BBX 9 15 2 -4
BITMAP
de00
f300
e180
c180
c180
c180
c180
c180
c300
e300
de00
c000
c000
c000
c000
ENDCHAR
STARTCHAR q
ENCODING 113
SWIDTH 602 0
DWIDTH 12 0
BBX 9 15 1 -4
BITMAP
3d80
6380
6180
c180
c180
c180
c180
c180
c380
6780
3d80
0180
0180
0180
0180
ENDCHAR
STARTCHAR r
ENCODING 114
SWIDTH 602 0
DWIDTH 12 0
BBX 8 11 3 0
BITMAP
df
f1
e1
c0
c0
c0
c0
c0
c0
c0
c0
ENDCHAR
STARTCHAR s
ENCODING 115
SWIDTH 602 0
DWIDTH 12 0
BBX 8 11 2 0
BITMAP
3e
62
c0
c0
f8
3e
0f
03
03
86
fc
ENDCHAR
STARTCHAR t
ENCODING 116
SWIDTH 602 0
DWIDTH 12 0
BBX 10 13 1 0
BITMAP
1800
1800
ffc0
1800
1800
1800
1800
1800
1800
1800
1800
1c00
0fc0
ENDCHAR
STARTCHAR u
ENCODING 117
SWIDTH 602 0
DWIDTH 12 0
BBX 9 11 1 0
BITMAP
c180
c180
c180
c180
c180
c180
c180
c180
c780
7d80
7980
ENDCHAR
STARTCHAR v
ENCODING 118
SWIDTH 602 0
DWIDTH 12 0
BBX 11 11 0 0
BITMAP
c060
6040
6040
7080
3080
3100
1900
1b00
1e00
0e00
0c00
ENDCHAR
STARTCHAR w
ENCODING 119
SWIDTH 602 0
DWIDTH 12 0
BBX 12 11 0 0
BITMAP
c010
c610
c620
6620
6920
6920
6960
6940
71c0
30c0
30c0
ENDCHAR
STARTCHAR x
ENCODING 120
SWIDTH 602 0
DWIDTH 12 0
BBX 10 11 1 0
BITMAP
e080
6100
3100
3a00
1c00
0c00
1e00
1700
2300
6180
c1c0
ENDCHAR
STARTCHAR y
ENCODING 121
SWIDTH 602 0
DWIDTH 12 0
BBX 11 15 1 -4
BITMAP
c060
6040
6040
7080
3080
3100
1900
1a00
0e00
0e00
0c00
0400
0800
1800
7000
ENDCHAR
STARTCHAR z
ENCODING 122
SWIDTH 602 0
DWIDTH 12 0
BBX 9 11 1 0
BITMAP
ff80
0100
0200
0600
0400
0800
1000
2000
6000
4000
ff80
ENDCHAR
STARTCHAR braceleft
ENCODING 123
SWIDTH 602 0
DWIDTH 12 0
BBX 8 17 2 -3
BITMAP
0f
18
18
18
08
08
08
18
e0
18
08
08
18
18
18
18
0f
ENDCHAR
STARTCHAR bar
ENCODING 124
SWIDTH 602 0
DWIDTH 12 0
BBX 1 17 5 -3
BITMAP
80
80
80
80
80
80
80
80
80
80
80
80
80
80
80
80
80
ENDCHAR
STARTCHAR braceright
ENCODING 125
SWIDTH 602 0
DWIDTH 12 0
BBX 7 17 2 -3
BITMAP
f0
18
18
18
18
10
10
18
0e
18
10
10
18
18
18
18
f0
ENDCHAR
STARTCHAR asciitilde
ENCODING 126
SWIDTH 602 0
DWIDTH 12 0
BBX 10 5 1 3
BITMAP
7040
5840
8c40
8680
8380
ENDCHAR
STARTCHAR exclamdown
ENCODING 161
SWIDTH 602 0
DWIDTH 12 0
BBX 2 15 5 -4
BITMAP
80
80
00
00
80
80
80
80
c0
c0
c0
c0
c0
c0
c0
ENDCHAR
STARTCHAR cent
ENCODING 162
SWIDTH 602 0
DWIDTH 12 0
BBX 8 14 2 0
BITMAP
08
08
3f
69
e8
c8
c8
c8
c8
48
69
3f
08
08
ENDCHAR
STARTCHAR sterling
ENCODING 163
SWIDTH 602 0
DWIDTH 12 0
BBX 8 14 2 0
BITMAP
0f
10
30
30
30
30
fc
30
30
30
30
60
e0
ff
ENDCHAR
STARTCHAR currency
ENCODING 164
SWIDTH 602 0
DWIDTH 12 0
BBX 10 10 1 2
BITMAP
8040
7f80
6180
4080
4080
4080
4080
6180
7f80
8040
ENDCHAR
STARTCHAR yen
ENCODING 165
SWIDTH 602 0
DWIDTH 12 0
BBX 12 14 0 0
BITMAP
e030
6060
3040
3880
1d80
0d00
0600
3fc0
0600
3fc0
0600
0600
0600
0600
ENDCHAR
STARTCHAR brokenbar
ENCODING 166
SWIDTH 602 0
DWIDTH 12 0
BBX 1 17 5 -3
BITMAP
80
80
80
80
80
80
80
00
00
00
80
80
80
80
80
80
80
ENDCHAR
STARTCHAR section
ENCODING 167
SWIDTH 602 0
DWIDTH 12 0
BBX 8 18 2 -4
BITMAP
3e
42
80
80
e0
f8
fc
8e
82
c2
f2
7c
1e
07
03
03
86
fc
ENDCHAR
STARTCHAR dieresis
ENCODING 168
SWIDTH 602 0
DWIDTH 12 0
BBX 6 1 3 13
BITMAP
cc
ENDCHAR
STARTCHAR copyright
ENCODING 169
SWIDTH 602 0
DWIDTH 12 0
BBX 11 14 0 0
BITMAP
1f00
20c0
4040
8f20
9120
a020
a020
a020
a020
9120
8f20
4040
6080
1f00
ENDCHAR
STARTCHAR ordfeminine
ENCODING 170
SWIDTH 602 0
DWIDTH 12 0
BBX 7 7 3 7
BITMAP
78
c4
04
7c
84
84
7e
ENDCHAR
STARTCHAR guillemotleft
ENCODING 171
SWIDTH 602 0
DWIDTH 12 0
BBX 10 9 1 1
BITMAP
0840
1880
3100
6200
c400
6200
3100
1880
0840
ENDCHAR
STARTCHAR logicalnot
ENCODING 172
SWIDTH 602 0
DWIDTH 12 0
BBX 10 5 1 3
BITMAP
ffc0
0040
0040
0040
0040
ENDCHAR
STARTCHAR hyphen
ENCODING 173
SWIDTH 602 0
DWIDTH 12 0
BBX 8 1 2 6
BITMAP
ff
ENDCHAR
STARTCHAR registered
ENCODING 174
SWIDTH 602 0
DWIDTH 12 0
BBX 7 8 3 6
BITMAP
38
44
ba
ba
b2
aa
44
38
ENDCHAR
STARTCHAR macron
ENCODING 175
SWIDTH 602 0
DWIDTH 12 0
BBX 6 1 3 13
BITMAP
fc
ENDCHAR
STARTCHAR degree
ENCODING 176
SWIDTH 602 0
DWIDTH 12 0
BBX 3 3 4 11
BITMAP
e0
a0
e0
ENDCHAR
STARTCHAR plusminus
ENCODING 177
SWIDTH 602 0
DWIDTH 12 0
BBX 9 11 1 0
BITMAP
0800
0800
0800
0800
ff80
0800
0800
0800
0000
0000
ff80
ENDCHAR
STARTCHAR twosuperior
ENCODING 178
SWIDTH 602 0
DWIDTH 12 0
BBX 4 7 -2 7
BITMAP
e0
90
10
20
40
80
f0
ENDCHAR
STARTCHAR threesuperior
ENCODING 179
SWIDTH 602 0
DWIDTH 12 0
BBX 4 7 -2 7
BITMAP
e0
10
10
60
10
10
e0
ENDCHAR
STARTCHAR acute
ENCODING 180
SWIDTH 602 0
DWIDTH 12 0
BBX 4 3 4 11
BITMAP
30
60
c0
ENDCHAR
STARTCHAR mu
ENCODING 181
SWIDTH 602 0
DWIDTH 12 0
BBX 9 14 1 -3
BITMAP
c180
c180
c180
c180
c180
c180
c180
c380
c780
fd80
f980
c000
c000
c000
ENDCHAR
STARTCHAR paragraph
ENCODING 182
SWIDTH 602 0
DWIDTH 12 0
BBX 8 17 1 -3
BITMAP
7f
f9
f9
f9
f9
79
39
09
09
09
09
09
09
09
09
09
09
ENDCHAR
STARTCHAR periodcentered
ENCODING 183
SWIDTH 602 0
DWIDTH 12 0
BBX 2 2 5 5
BITMAP
c0
c0
ENDCHAR
STARTCHAR cedilla
ENCODING 184
SWIDTH 602 0
DWIDTH 12 0
BBX 3 5 5 -4
BITMAP
c0
40
20
20
e0
ENDCHAR
STARTCHAR onesuperior
ENCODING 185
SWIDTH 602 0
DWIDTH 12 0
BBX 5 7 -1 7
BITMAP
e0
a0
20
20
20
20
f8
ENDCHAR
STARTCHAR ordmasculine
ENCODING 186
SWIDTH 602 0
DWIDTH 12 0
BBX 8 7 2 7
BITMAP
3c
66
c3
c3
c3
66
3c
ENDCHAR
STARTCHAR guillemotright
ENCODING 187
SWIDTH 602 0
DWIDTH 12 0
BBX 10 9 1 1
BITMAP
8400
4600
2300
1180
08c0
1180
2300
4600
8400
ENDCHAR
STARTCHAR onequarter
ENCODING 188
SWIDTH 602 0
DWIDTH 12 0
BBX 12 14 2 0
BITMAP
e030
a060
2040
2080
2100
2300
fa00
0460
0860
08a0
1120
21f0
6020
c020
ENDCHAR
STARTCHAR onehalf
ENCODING 189
SWIDTH 602 0
DWIDTH 12 0
BBX 12 14 2 0
BITMAP
e030
a060
2040
2080
2100
2300
fa00
04e0
0890
0810
1020
2040
6080
c0f0
ENDCHAR
STARTCHAR threequarters
ENCODING 190
SWIDTH 602 0
DWIDTH 12 0
BBX 12 14 2 0
BITMAP
e030
1060
1040
6080
1100
1300
e200
0460
0860
08a0
1120
21f0
6020
c020
ENDCHAR
STARTCHAR questiondown
ENCODING 191
SWIDTH 602 0
DWIDTH 12 0
BBX 9 15 1 -4
BITMAP
0c00
0c00
0000
0000
0c00
0c00
0c00
1800
3000
6000
c000
c000
c080
6080
3f80
ENDCHAR
STARTCHAR Agrave
ENCODING 192
SWIDTH 602 0
DWIDTH 12 0
BBX 12 18 0 0
BITMAP
0c00
0600
0300
0000
0600
0700
0b00
0b00
0980
1180
1180
10c0
20c0
3fc0
2060
4060
4070
c030
ENDCHAR
STARTCHAR Aacute
ENCODING 193
SWIDTH 602 0
DWIDTH 12 0
BBX 12 18 0 0
BITMAP
0300
0600
0c00
0000
0600
0700
0b00
0b00
0980
1180
1180
10c0
20c0
3fc0
2060
4060
4070
c030
ENDCHAR
STARTCHAR Acircumflex
ENCODING 194
SWIDTH 602 0
DWIDTH 12 0
BBX 12 18 0 0
BITMAP
0700
0d80
18c0
0000
0600
0700
0b00
0b00
0980
1180
1180
10c0
20c0
3fc0
2060
4060
4070
c030
ENDCHAR
STARTCHAR Atilde
ENCODING 195
SWIDTH 602 0
DWIDTH 12 0
BBX 12 17 0 0
BITMAP
1ec0
1bc0
0000
0600
0700
0b00
0b00
0980
1180
1180
10c0
20c0
3fc0
2060
4060
4070
c030
ENDCHAR
STARTCHAR Adieresis
ENCODING 196
SWIDTH 602 0
DWIDTH 12 0
BBX 12 16 0 0
BITMAP
1980
0000
0600
0700
0b00
0b00
0980
1180
1180
10c0
20c0
3fc0
2060
4060
4070
c030
ENDCHAR
STARTCHAR Aring
ENCODING 197
SWIDTH 602 0
DWIDTH 12 0
BBX 12 18 0 0
BITMAP
0e00
0a00
0e00
0000
0600
0700
0b00
0b00
0980
1180
1180
10c0
20c0
3fc0
2060
4060
4070
c030
ENDCHAR
STARTCHAR AE
ENCODING 198
SWIDTH 602 0
DWIDTH 12 0
BBX 12 14 0 0
BITMAP
03e0
0700
0700
0700
0b00
0b00
1300
13e0
1300
2300
3f00
4300
4300
c3f0
ENDCHAR
STARTCHAR Ccedilla
ENCODING 199
SWIDTH 602 0
DWIDTH 12 0
BBX 10 18 1 -4
BITMAP
0fc0
3840
6000
6000
c000
c000
c000
c000
c000
c000
6000
6000
3840
0fc0
0400
0200
0200
0e00
ENDCHAR
STARTCHAR Egrave
ENCODING 200
SWIDTH 602 0
DWIDTH 12 0
BBX 9 18 2 0
BITMAP
3000
1800
0c00
0000
ff80
c000
c000
c000
c000
c000
ff00
c000
c000
c000
c000
c000
c000
ff80
ENDCHAR
STARTCHAR Eacute
ENCODING 201
SWIDTH 602 0
DWIDTH 12 0
BBX 9 18 2 0
BITMAP
0c00
1800
3000
0000
ff80
c000
c000
c000
c000
c000
ff00
c000
c000
c000
c000
c000
c000
ff80
ENDCHAR
STARTCHAR Ecircumflex
ENCODING 202
SWIDTH 602 0
DWIDTH 12 0
BBX 9 18 2 0
BITMAP
1c00
3600
6300
0000
ff80
c000
c000
c000
c000
c000
ff00
c000
c000
c000
c000
c000
c000
ff80
ENDCHAR
STARTCHAR Edieresis
ENCODING 203
SWIDTH 602 0
DWIDTH 12 0
BBX 9 16 2 0
BITMAP
6600
0000
ff80
c000
c000
c000
c000
c000
ff00
c000
c000
c000
c000
c000
c000
ff80
ENDCHAR
STARTCHAR Igrave
ENCODING 204
SWIDTH 602 0
DWIDTH 12 0
BBX 8 18 2 0
BITMAP
30
18
0c
00
ff
18
18
18
18
18
18
18
18
18
18
18
18
ff
ENDCHAR
STARTCHAR Iacute
ENCODING 205
SWIDTH 602 0
DWIDTH 12 0
BBX 8 18 2 0
BITMAP
0c
18
30
00
ff
18
18
18
18
18
18
18
18
18
18
18
18
ff
ENDCHAR
STARTCHAR Icircumflex
ENCODING 206
SWIDTH 602 0
DWIDTH 12 0
BBX 8 18 2 0
BITMAP
38
6c
c6
00
ff
18
18
18
18
18
18
18
18
18
18
18
18
ff
ENDCHAR
STARTCHAR Idieresis
ENCODING 207
SWIDTH 602 0
DWIDTH 12 0
BBX 8 16 2 0
BITMAP
66
00
ff
18
18
18
18
18
18
18
18
18
18
18
18
ff
ENDCHAR
STARTCHAR Eth
ENCODING 208
SWIDTH 602 0
DWIDTH 12 0
BBX 11 14 0 0
BITMAP
7f00
6180
60c0
6060
6060
6060
f860
6060
6060
6060
60c0
60c0
6180
7f00
ENDCHAR
STARTCHAR Ntilde
ENCODING 209
SWIDTH 602 0
DWIDTH 12 0
BBX 9 17 1 0
BITMAP
7b00
6f00
0000
c080
e080
e080
f080
b080
9880
9880
8c80
8e80
8680
8780
8380
8180
8180
ENDCHAR
STARTCHAR Ograve
ENCODING 210
SWIDTH 602 0
DWIDTH 12 0
BBX 11 18 0 0
BITMAP
0c00
0600
0300
0000
1f00
3180
60c0
60c0
c060
c060
c060
c060
c060
c060
60c0
60c0
3180
1f00
ENDCHAR
STARTCHAR Oacute
ENCODING 211
SWIDTH 602 0
DWIDTH 12 0
BBX 11 18 0 0
BITMAP
0600
0c00
1800
0000
1f00
3180
60c0
60c0
c060
c060
c060
c060
c060
c060
60c0
60c0
3180
1f00
ENDCHAR
STARTCHAR Ocircumflex
ENCODING 212
SWIDTH 602 0
DWIDTH 12 0
BBX 11 18 0 0
BITMAP
0e00
1b00
3180
0000
1f00
3180
60c0
60c0
c060
c060
c060
c060
c060
c060
60c0
60c0
3180
1f00
ENDCHAR
STARTCHAR Otilde
ENCODING 213
SWIDTH 602 0
DWIDTH 12 0
BBX 11 17 0 0
BITMAP
3d80
3780
0000
1f00
3180
60c0
60c0
c060
c060
c060
c060
c060
c060
60c0
60c0
3180
1f00
ENDCHAR
STARTCHAR Odieresis
ENCODING 214
SWIDTH 602 0
DWIDTH 12 0
BBX 11 16 0 0
BITMAP
3300
0000
1f00
3180
60c0
60c0
c060
c060
c060
c060
c060
c060
60c0
60c0
3180
1f00
ENDCHAR
STARTCHAR multiply
ENCODING 215
SWIDTH 602 0
DWIDTH 12 0
BBX 10 11 1 0
BITMAP
0c00
0c00
0000
0000
0000
ffc0
0000
0000
0000
0c00
0c00
ENDCHAR
STARTCHAR Oslash
ENCODING 216
SWIDTH 602 0
DWIDTH 12 0
BBX 11 14 1 0
BITMAP
1f60
31c0
60c0
61c0
c360
c260
c460
c460
c860
d060
50c0
60c0
7180
df00
ENDCHAR
STARTCHAR Ugrave
ENCODING 217
SWIDTH 602 0
DWIDTH 12 0
BBX 9 18 2 0
BITMAP
1800
0c00
0600
0000
c080
c080
c080
c080
c080
c080
c080
c080
c080
c080
c080
c080
6100
3e00
ENDCHAR
STARTCHAR Uacute
ENCODING 218
SWIDTH 602 0
DWIDTH 12 0
BBX 9 18 2 0
BITMAP
0c00
1800
3000
0000
c080
c080
c080
c080
c080
c080
c080
c080
c080
c080
c080
c080
6100
3e00
ENDCHAR
STARTCHAR Ucircumflex
ENCODING 219
SWIDTH 602 0
DWIDTH 12 0
BBX 9 18 2 0
BITMAP
1c00
3600
6300
0000
c080
c080
c080
c080
c080
c080
c080
c080
c080
c080
c080
c080
6100
3e00
ENDCHAR
STARTCHAR Udieresis
ENCODING 220
SWIDTH 602 0
DWIDTH 12 0
BBX 9 16 2 0
BITMAP
6600
0000
c080
c080
c080
c080
c080
c080
c080
c080
c080
c080
c080
c080
6100
3e00
ENDCHAR
STARTCHAR Yacute
ENCODING 221
SWIDTH 602 0
DWIDTH 12 0
BBX 12 18 0 0
BITMAP
0300
0600
0c00
0000
e030
6020
7040
3080
1880
1d00
0f00
0600
0600
0600
0600
0600
0600
0600
ENDCHAR
STARTCHAR Thorn
ENCODING 222
SWIDTH 602 0
DWIDTH 12 0
BBX 9 14 2 0
BITMAP
c000
c000
c000
fe00
c380
c180
c180
c180
c180
c300
fc00
c000
c000
c000
ENDCHAR
STARTCHAR germandbls
ENCODING 223
SWIDTH 602 0
DWIDTH 12 0
BBX 10 16 2 0
BITMAP
7e00
c700
c300
c300
c600
c400
c800
c800
ce00
c700
c380
c1c0
c0c0
c0c0
d0c0
df80
ENDCHAR
STARTCHAR agrave
ENCODING 224
SWIDTH 602 0
DWIDTH 12 0
BBX 10 15 1 0
BITMAP
1800
0c00
0600
0000
7e00
4300
0300
0300
0300
3f00
6300
c300
c300
c700
7dc0
ENDCHAR
STARTCHAR aacute
ENCODING 225
SWIDTH 602 0
DWIDTH 12 0
BBX 10 15 1 0
BITMAP
0c00
1800
3000
0000
7e00
4300
0300
0300
0300
3f00
6300
c300
c300
c700
7dc0
ENDCHAR
STARTCHAR acircumflex
ENCODING 226
SWIDTH 602 0
DWIDTH 12 0
BBX 10 15 1 0
BITMAP
1c00
3600
6300
0000
7e00
4300
0300
0300
0300
3f00
6300
c300
c300
c700
7dc0
ENDCHAR
STARTCHAR atilde
ENCODING 227
SWIDTH 602 0
DWIDTH 12 0
BBX 10 14 1 0
BITMAP
7b00
6f00
0000
7e00
4300
0300
0300
0300
3f00
6300
c300
c300
c700
7dc0
ENDCHAR
STARTCHAR adieresis
ENCODING 228
SWIDTH 602 0
DWIDTH 12 0
BBX 10 13 1 0
BITMAP
3300
0000
7e00
4300
0300
0300
0300
3f00
6300
c300
c300
c700
7dc0
ENDCHAR
STARTCHAR aring
ENCODING 229
SWIDTH 602 0
DWIDTH 12 0
BBX 10 15 1 0
BITMAP
1c00
1400
1c00
0000
7e00
4300
0300
0300
0300
3f00
6300
c300
c300
c700
7dc0
ENDCHAR
STARTCHAR ae
ENCODING 230
SWIDTH 602 0
DWIDTH 12 0
BBX 11 11 1 0
BITMAP
7b80
4e40
0c60
0c60
0c60
7fe0
ec00
cc00
cc00
ce20
7be0
ENDCHAR
STARTCHAR ccedilla
ENCODING 231
SWIDTH 602 0
DWIDTH 12 0
BBX 9 15 2 -4
BITMAP
1f80
7080
6000
c000
c000
c000
c000
c000
6000
7080
1f80
0800
0400
0400
1c00
ENDCHAR
STARTCHAR egrave
ENCODING 232
SWIDTH 602 0
DWIDTH 12 0
BBX 9 15 2 0
BITMAP
1800
0c00
0600
0000
1e00
6300
6180
c180
c180
ff80
c000
c000
4000
6080
1f80
ENDCHAR
STARTCHAR eacute
ENCODING 233
SWIDTH 602 0
DWIDTH 12 0
BBX 9 15 2 0
BITMAP
0c00
1800
3000
0000
1e00
6300
6180
c180
c180
ff80
c000
c000
4000
6080
1f80
ENDCHAR
STARTCHAR ecircumflex
ENCODING 234
SWIDTH 602 0
DWIDTH 12 0
BBX 9 15 2 0
BITMAP
1c00
3600
6300
0000
1e00
6300
6180
c180
c180
ff80
c000
c000
4000
6080
1f80
ENDCHAR
STARTCHAR edieresis
ENCODING 235
SWIDTH 602 0
DWIDTH 12 0
BBX 9 13 2 0
BITMAP
6600
0000
1e00
6300
6180
c180
c180
ff80
c000
c000
4000
6080
1f80
ENDCHAR
STARTCHAR igrave
ENCODING 236
SWIDTH 602 0
DWIDTH 12 0
BBX 7 15 2 0
BITMAP
18
0c
06
00
fc
0c
0c
0c
0c
0c
0c
0c
0c
0c
0c
ENDCHAR
STARTCHAR iacute
ENCODING 237
SWIDTH 602 0
DWIDTH 12 0
BBX 6 15 2 0
BITMAP
0c
18
30
00
fc
0c
0c
0c
0c
0c
0c
0c
0c
0c
0c
ENDCHAR
STARTCHAR icircumflex
ENCODING 238
SWIDTH 602 0
DWIDTH 12 0
BBX 8 15 2 0
BITMAP
1c
36
63
00
fc
0c
0c
0c
0c
0c
0c
0c
0c
0c
0c
ENDCHAR
STARTCHAR idieresis
ENCODING 239
SWIDTH 602 0
DWIDTH 12 0
BBX 7 13 2 0
BITMAP
66
00
fc
0c
0c
0c
0c
0c
0c
0c
0c
0c
0c
ENDCHAR
STARTCHAR eth
ENCODING 240
SWIDTH 602 0
DWIDTH 12 0
BBX 10 14 1 0
BITMAP
fe00
3c00
4200
1f00
7180
6180
c0c0
c0c0
c0c0
c0c0
c0c0
6180
7180
1e00
ENDCHAR
STARTCHAR ntilde
ENCODING 241
SWIDTH 602 0
DWIDTH 12 0
BBX 9 14 2 0
BITMAP
7b00
6f00
0000
cf00
df80
f180
c180
c180
c180
c180
c180
c180
c180
c180
ENDCHAR
STARTCHAR ograve
ENCODING 242
SWIDTH 602 0
DWIDTH 12 0
BBX 10 15 1 0
BITMAP
1800
0c00
0600
0000
1e00
7380
6180
c0c0
c0c0
c0c0
c0c0
c0c0
6180
7380
1e00
ENDCHAR
STARTCHAR oacute
ENCODING 243
SWIDTH 602 0
DWIDTH 12 0
BBX 10 15 1 0
BITMAP
0600
0c00
1800
0000
1e00
7380
6180
c0c0
c0c0
c0c0
c0c0
c0c0
6180
7380
1e00
ENDCHAR
STARTCHAR ocircumflex
ENCODING 244
SWIDTH 602 0
DWIDTH 12 0
BBX 10 15 1 0
BITMAP
1c00
3600
6300
0000
1e00
7380
6180
c0c0
c0c0
c0c0
c0c0
c0c0
6180
7380
1e00
ENDCHAR
STARTCHAR otilde
ENCODING 245
SWIDTH 602 0
DWIDTH 12 0
BBX 10 14 1 0
BITMAP
7b00
6f00
0000
1e00
7380
6180
c0c0
c0c0
c0c0
c0c0
c0c0
6180
7380
1e00
ENDCHAR
STARTCHAR odieresis
ENCODING 246
SWIDTH 602 0
DWIDTH 12 0
BBX 10 13 1 0
BITMAP
3300
0000
1e00
7380
6180
c0c0
c0c0
c0c0
c0c0
c0c0
6180
7380
1e00
ENDCHAR
STARTCHAR divide
ENCODING 247
SWIDTH 602 0
DWIDTH 12 0
BBX 10 11 1 0
BITMAP
c040
40c0
2100
1200
1e00
0c00
1e00
3200
2100
c080
80c0
ENDCHAR
STARTCHAR oslash
ENCODING 248
SWIDTH 602 0
DWIDTH 12 0
BBX 10 11 1 0
BITMAP
1fc0
7180
6380
c2c0
c4c0
ccc0
c8c0
d0c0
7180
6180
fe00
ENDCHAR
STARTCHAR ugrave
ENCODING 249
SWIDTH 602 0
DWIDTH 12 0
BBX 9 15 1 0
BITMAP
1800
0c00
0600
0000
c180
c180
c180
c180
c180
c180
c180
c180
c780
7d80
7980
ENDCHAR
STARTCHAR uacute
ENCODING 250
SWIDTH 602 0
DWIDTH 12 0
BBX 9 15 1 0
BITMAP
0c00
1800
3000
0000
c180
c180
c180
c180
c180
c180
c180
c180
c780
7d80
7980
ENDCHAR
STARTCHAR ucircumflex
ENCODING 251
SWIDTH 602 0
DWIDTH 12 0
BBX 9 15 1 0
BITMAP
1c00
3600
6300
0000
c180
c180
c180
c180
c180
c180
c180
c180
c780
7d80
7980
ENDCHAR
STARTCHAR udieresis
ENCODING 252
SWIDTH 602 0
DWIDTH 12 0
BBX 9 13 1 0
BITMAP
3300
0000
c180
c180
c180
c180
c180
c180
c180
c180
c780
7d80
7980
ENDCHAR
STARTCHAR yacute
ENCODING 253
SWIDTH 602 0
DWIDTH 12 0
BBX 11 19 1 -4
BITMAP
0600
0c00
1800
0000
c060
6040
6040
7080
3080
3100
1900
1a00
0e00
0e00
0c00
0400
0800
1800
7000
ENDCHAR
STARTCHAR thorn
ENCODING 254
SWIDTH 602 0
DWIDTH 12 0
BBX 9 17 2 -4
BITMAP
c000
c000
de00
f300
e180
c180
c180
c180
c180
c180
c300
e300
de00
c000
c000
c000
c000
ENDCHAR
STARTCHAR ydieresis
ENCODING 255
SWIDTH 602 0
DWIDTH 12 0
BBX 11 17 1 -4
BITMAP
3300
0000
c060
6040
6040
7080
3080
3100
1900
1a00
0e00
0e00
0c00
0400
0800
1800
7000
ENDCHAR
ENDFONT
